<?xml version="1.0" standalone="no"?>
<!DOCTYPE svg PUBLIC "-//W3C//DTD SVG 20010904//EN"
 "http://www.w3.org/TR/2001/REC-SVG-20010904/DTD/svg10.dtd">
<svg version="1.0" xmlns="http://www.w3.org/2000/svg"
 width="512.000000pt" height="512.000000pt" viewBox="0 0 512.000000 512.000000"
 preserveAspectRatio="xMidYMid meet">
<metadata>
Created by potrace 1.14, written by Peter Selinger 2001-2017
</metadata>
<g transform="translate(0.000000,512.000000) scale(0.100000,-0.100000)"
fill="#000000" stroke="none">
<path d="M845 5098 c-44 -12 -82 -24 -85 -27 -3 -3 -22 -15 -42 -25 -21 -10
-51 -31 -68 -45 -16 -14 -46 -39 -65 -56 -19 -16 -35 -35 -35 -41 0 -6 -9 -19
-20 -29 -11 -10 -20 -24 -20 -32 0 -7 -4 -13 -10 -13 -5 0 -10 -9 -10 -19 0
-11 -4 -22 -9 -26 -9 -5 -35 -82 -48 -140 -6 -29 -6 -4113 1 -4162 10 -74 56
-193 86 -223 11 -11 20 -23 19 -26 -3 -21 140 -146 184 -160 9 -4 17 -10 17
-15 0 -5 8 -9 18 -9 10 0 22 -4 28 -9 5 -5 41 -16 79 -25 62 -14 248 -16 1693
-16 1463 0 1631 2 1695 16 88 20 166 60 236 119 51 44 90 87 97 107 3 10 9 18
14 18 17 0 73 141 85 216 3 22 7 740 7 1593 1 1327 -1 1554 -13 1562 -8 5 -11
9 -7 9 4 0 2 14 -4 31 -11 33 -243 281 -253 271 -3 -3 -5 2 -5 11 0 10 -8 17
-17 17 -9 0 -14 2 -11 5 4 4 -46 55 -225 232 -7 6 -88 88 -181 182 -93 94
-173 171 -178 171 -4 0 -8 4 -8 9 0 10 -470 482 -470 472 0 -3 -5 2 -11 12 -5
9 -15 17 -21 17 -6 0 -19 6 -27 13 -43 36 -76 37 -1216 36 -1102 0 -1121 -1
-1200 -21z"/>
</g>
</svg>
